# xmcd
#
# Track frame offsets: 
#        150
#        16442
#        33039
#        58485
#        73830
#        91559
#        110591
#        133093
#        155596
#        176246
#        195477
#        219574
#        242009
#        256625
#        272565
#        287605
#        299852
#        311638
#        325978
#        339345
#
# Disc length: 4726 seconds
#
# Revision: 0
# Processed by: cddbd v1.5.2PL0 Copyright (c) Steve Scherf et al.
# Submitted via: ExactAudioCopy v1.0b1
#
DISCID=31127414
DTITLE=Earl Van Dyke - The Motown Sound - Complete Albums and More
DYEAR=2012
DGENRE=R&B
TTITLE0=Someday We'll Be Together
TTITLE1=Rainy Night In Georgia
TTITLE2=Thank You Falettinme Be Mice Elf Agin
TTITLE3=Na Na Hey Hey Kiss Him Goodbye
TTITLE4=Wichita Lineman
TTITLE5=The Flick
TTITLE6=Cissy Strut
TTITLE7=Stand By Me
TTITLE8=My Cherie Amour
TTITLE9=Fuschia Moods
TTITLE10=The Stingray
TTITLE11=The Whip-A-Rang
TTITLE12=Runaway Child, Running Wild
TTITLE13=Gonna Give Her All The Love I've Got
TTITLE14=Fever In The Funk House
TTITLE15=Behold
TTITLE16=Greedy Green
TTITLE17=Up On Your Feet
TTITLE18=Too Busy Thinking About My Baby
TTITLE19=Ode To Benny B.
EXTD=
EXTT0=
EXTT1=
EXTT2=
EXTT3=
EXTT4=
EXTT5=
EXTT6=
EXTT7=
EXTT8=
EXTT9=
EXTT10=
EXTT11=
EXTT12=
EXTT13=
EXTT14=
EXTT15=
EXTT16=
EXTT17=
EXTT18=
EXTT19=
PLAYORDER=
